# MagicaVoxel @ Ephtracy

# group
o 

# material
mtllib finish.mtl
usemtl palette

# normals
vn -1 0 0
vn 1 0 0
vn 0 0 1
vn 0 0 -1
vn 0 -1 0
vn 0 1 0

# texcoords
vt 0.138672 0.5
vt 0.205078 0.5
vt 0.884766 0.5

# verts
v -0.4 0 0.4
v -0.4 0 -0.4
v -0.4 0.2 0.4
v -0.4 0.2 -0.4
v -0.4 0.3 0.4
v -0.4 0.3 -0.4
v -0.1 0.2 0.1
v -0.1 0.2 -0.1
v -0.1 0.6 0.1
v -0.1 0.6 -0.1
v -0.2 0.2 0.2
v -0.2 0.2 -0.2
v -0.2 0.3 0.2
v -0.2 0.3 -0.2
v 0 0.2 0.1
v 0 0.2 -0.1
v 0 0.6 0.1
v 0 0.6 -0.1
v 0.4 0 0.4
v 0.4 0 -0.4
v 0.4 0.2 0.4
v 0.4 0.2 0.2
v 0.4 0.2 -0.2
v 0.4 0.2 -0.4
v 0.4 0.3 0.4
v 0.4 0.3 0.2
v 0.4 0.3 -0.2
v 0.4 0.3 -0.4
v -0.4 0 0.4
v -0.4 0.2 0.4
v -0.4 0.3 0.4
v 0.4 0 0.4
v 0.4 0.2 0.4
v 0.4 0.3 0.4
v -0.1 0.2 0.1
v -0.1 0.6 0.1
v 0 0.2 0.1
v 0 0.6 0.1
v -0.2 0.2 -0.2
v -0.2 0.3 -0.2
v 0.4 0.2 -0.2
v 0.4 0.3 -0.2
v -0.2 0.2 0.2
v -0.2 0.3 0.2
v 0.4 0.2 0.2
v 0.4 0.3 0.2
v -0.1 0.2 -0.1
v -0.1 0.6 -0.1
v 0 0.2 -0.1
v 0 0.6 -0.1
v -0.4 0 -0.4
v -0.4 0.2 -0.4
v -0.4 0.3 -0.4
v 0.4 0 -0.4
v 0.4 0.2 -0.4
v 0.4 0.3 -0.4
v -0.4 0 0.4
v 0.4 0 0.4
v -0.4 0 -0.4
v 0.4 0 -0.4
v -0.2 0.2 0.2
v 0.4 0.2 0.2
v -0.1 0.2 0.1
v 0 0.2 0.1
v -0.1 0.2 -0.1
v 0 0.2 -0.1
v -0.2 0.2 -0.2
v 0.4 0.2 -0.2
v -0.4 0.3 0.4
v 0.4 0.3 0.4
v -0.2 0.3 0.2
v 0.4 0.3 0.2
v -0.2 0.3 -0.2
v 0.4 0.3 -0.2
v -0.4 0.3 -0.4
v 0.4 0.3 -0.4
v -0.1 0.6 0.1
v 0 0.6 0.1
v -0.1 0.6 -0.1
v 0 0.6 -0.1

# faces
f 3/2/1 2/2/1 1/2/1
f 4/2/1 2/2/1 3/2/1
f 5/3/1 4/3/1 3/3/1
f 6/3/1 4/3/1 5/3/1
f 9/1/1 8/1/1 7/1/1
f 10/1/1 8/1/1 9/1/1
f 11/3/2 12/3/2 13/3/2
f 13/3/2 12/3/2 14/3/2
f 15/1/2 16/1/2 17/1/2
f 17/1/2 16/1/2 18/1/2
f 19/2/2 20/2/2 21/2/2
f 21/2/2 20/2/2 22/2/2
f 22/2/2 20/2/2 23/2/2
f 23/2/2 20/2/2 24/2/2
f 21/3/2 22/3/2 25/3/2
f 25/3/2 22/3/2 26/3/2
f 23/3/2 24/3/2 27/3/2
f 27/3/2 24/3/2 28/3/2
f 32/2/3 30/2/3 29/2/3
f 33/3/3 31/3/3 30/3/3
f 33/2/3 30/2/3 32/2/3
f 34/3/3 31/3/3 33/3/3
f 37/1/3 36/1/3 35/1/3
f 38/1/3 36/1/3 37/1/3
f 41/3/3 40/3/3 39/3/3
f 42/3/3 40/3/3 41/3/3
f 43/3/4 44/3/4 45/3/4
f 45/3/4 44/3/4 46/3/4
f 47/1/4 48/1/4 49/1/4
f 49/1/4 48/1/4 50/1/4
f 51/2/4 52/2/4 54/2/4
f 52/3/4 53/3/4 55/3/4
f 54/2/4 52/2/4 55/2/4
f 55/3/4 53/3/4 56/3/4
f 59/2/5 58/2/5 57/2/5
f 60/2/5 58/2/5 59/2/5
f 61/2/6 62/2/6 63/2/6
f 63/2/6 62/2/6 64/2/6
f 61/2/6 63/2/6 65/2/6
f 64/2/6 62/2/6 66/2/6
f 61/2/6 65/2/6 67/2/6
f 65/2/6 66/2/6 67/2/6
f 66/2/6 62/2/6 68/2/6
f 67/2/6 66/2/6 68/2/6
f 69/3/6 70/3/6 71/3/6
f 71/3/6 70/3/6 72/3/6
f 69/3/6 71/3/6 73/3/6
f 69/3/6 73/3/6 75/3/6
f 73/3/6 74/3/6 75/3/6
f 75/3/6 74/3/6 76/3/6
f 77/1/6 78/1/6 79/1/6
f 79/1/6 78/1/6 80/1/6
