# MagicaVoxel @ Ephtracy

# group
o 

# material
mtllib FireTower.mtl
usemtl palette

# normals
vn -1 0 0
vn 1 0 0
vn 0 0 1
vn 0 0 -1
vn 0 -1 0
vn 0 1 0

# texcoords
vt 0.306641 0.5
vt 0.841797 0.5
vt 0.873047 0.5
vt 0.986328 0.5

# verts
v -0.4 0 0.4
v -0.4 0 -0.4
v -0.4 0.2 0.4
v -0.4 0.2 -0.4
v -0.3 0.2 0.3
v -0.3 0.2 -0.3
v -0.3 0.3 0.3
v -0.3 0.3 -0.3
v -0.2 0.3 0.2
v -0.2 0.3 -0.2
v -0.2 0.7 0.2
v -0.2 0.7 -0.2
v -0.1 0.7 0.1
v -0.1 0.7 0
v -0.1 0.7 -0.1
v -0.1 0.8 0.1
v -0.1 0.8 0
v -0.1 0.9 0.1
v -0.1 0.9 -0.1
v -0.1 1 0.1
v -0.1 1 -0.1
v 0.1 0.7 0.1
v 0.1 0.7 -0.1
v 0.1 0.8 0.1
v 0.1 0.8 -0.1
v 0.1 0.9 0.1
v 0.1 0.9 -0.1
v 0.1 1 0.1
v 0.1 1 -0.1
v 0.2 0.3 0.2
v 0.2 0.3 -0.2
v 0.2 0.7 0.2
v 0.2 0.7 -0.2
v 0.3 0.2 0.3
v 0.3 0.2 -0.3
v 0.3 0.3 0.3
v 0.3 0.3 -0.3
v 0.4 0 0.4
v 0.4 0 -0.4
v 0.4 0.2 0.4
v 0.4 0.2 -0.4
v -0.4 0 0.4
v -0.4 0.2 0.4
v 0.4 0 0.4
v 0.4 0.2 0.4
v -0.3 0.2 0.3
v -0.3 0.3 0.3
v 0.3 0.2 0.3
v 0.3 0.3 0.3
v -0.2 0.3 0.2
v -0.2 0.7 0.2
v 0.2 0.3 0.2
v 0.2 0.7 0.2
v -0.1 0.7 0.1
v -0.1 0.8 0.1
v -0.1 0.9 0.1
v -0.1 1 0.1
v 0.1 0.7 0.1
v 0.1 0.8 0.1
v 0.1 0.9 0.1
v 0.1 1 0.1
v -0.1 0.7 -0.1
v -0.1 0.9 -0.1
v -0.1 1 -0.1
v 0 0.7 -0.1
v 0 0.8 -0.1
v 0.1 0.7 -0.1
v 0.1 0.8 -0.1
v 0.1 0.9 -0.1
v 0.1 1 -0.1
v -0.2 0.3 -0.2
v -0.2 0.7 -0.2
v 0.2 0.3 -0.2
v 0.2 0.7 -0.2
v -0.3 0.2 -0.3
v -0.3 0.3 -0.3
v 0.3 0.2 -0.3
v 0.3 0.3 -0.3
v -0.4 0 -0.4
v -0.4 0.2 -0.4
v 0.4 0 -0.4
v 0.4 0.2 -0.4
v -0.4 0 0.4
v 0.4 0 0.4
v -0.3 0 0.3
v 0.3 0 0.3
v -0.3 0 -0.3
v 0.3 0 -0.3
v -0.4 0 -0.4
v 0.4 0 -0.4
v -0.4 0.2 0.4
v 0.4 0.2 0.4
v -0.3 0.2 0.3
v 0.3 0.2 0.3
v -0.3 0.2 -0.3
v 0.3 0.2 -0.3
v -0.4 0.2 -0.4
v 0.4 0.2 -0.4
v -0.3 0.3 0.3
v 0.3 0.3 0.3
v -0.2 0.3 0.2
v 0.2 0.3 0.2
v -0.2 0.3 -0.2
v 0.2 0.3 -0.2
v -0.3 0.3 -0.3
v 0.3 0.3 -0.3
v -0.2 0.7 0.2
v 0.2 0.7 0.2
v -0.1 0.7 0.1
v 0.1 0.7 0.1
v -0.1 0.7 0
v -0.1 0.7 -0.1
v 0 0.7 -0.1
v 0.1 0.7 -0.1
v -0.2 0.7 -0.2
v 0.2 0.7 -0.2
v -0.1 1 0.1
v 0.1 1 0.1
v -0.1 1 -0.1
v 0.1 1 -0.1

# faces
f 3/4/1 2/4/1 1/4/1
f 4/4/1 2/4/1 3/4/1
f 7/1/1 6/1/1 5/1/1
f 8/1/1 6/1/1 7/1/1
f 11/1/1 10/1/1 9/1/1
f 12/1/1 10/1/1 11/1/1
f 16/1/1 14/1/1 13/1/1
f 17/2/1 15/2/1 14/2/1
f 17/1/1 14/1/1 16/1/1
f 18/2/1 17/2/1 16/2/1
f 19/2/1 15/2/1 17/2/1
f 19/2/1 17/2/1 18/2/1
f 20/3/1 19/3/1 18/3/1
f 21/3/1 19/3/1 20/3/1
f 22/1/2 23/1/2 24/1/2
f 24/1/2 23/1/2 25/1/2
f 24/2/2 25/2/2 26/2/2
f 26/2/2 25/2/2 27/2/2
f 26/3/2 27/3/2 28/3/2
f 28/3/2 27/3/2 29/3/2
f 30/1/2 31/1/2 32/1/2
f 32/1/2 31/1/2 33/1/2
f 34/1/2 35/1/2 36/1/2
f 36/1/2 35/1/2 37/1/2
f 38/4/2 39/4/2 40/4/2
f 40/4/2 39/4/2 41/4/2
f 44/4/3 43/4/3 42/4/3
f 45/4/3 43/4/3 44/4/3
f 48/1/3 47/1/3 46/1/3
f 49/1/3 47/1/3 48/1/3
f 52/1/3 51/1/3 50/1/3
f 53/1/3 51/1/3 52/1/3
f 58/1/3 55/1/3 54/1/3
f 59/2/3 56/2/3 55/2/3
f 59/1/3 55/1/3 58/1/3
f 60/3/3 57/3/3 56/3/3
f 60/2/3 56/2/3 59/2/3
f 61/3/3 57/3/3 60/3/3
f 62/2/4 63/2/4 65/2/4
f 65/2/4 63/2/4 66/2/4
f 65/1/4 66/1/4 67/1/4
f 66/2/4 63/2/4 68/2/4
f 67/1/4 66/1/4 68/1/4
f 63/3/4 64/3/4 69/3/4
f 68/2/4 63/2/4 69/2/4
f 69/3/4 64/3/4 70/3/4
f 71/1/4 72/1/4 73/1/4
f 73/1/4 72/1/4 74/1/4
f 75/1/4 76/1/4 77/1/4
f 77/1/4 76/1/4 78/1/4
f 79/4/4 80/4/4 81/4/4
f 81/4/4 80/4/4 82/4/4
f 85/4/5 84/4/5 83/4/5
f 86/4/5 84/4/5 85/4/5
f 87/4/5 85/4/5 83/4/5
f 87/1/5 86/1/5 85/1/5
f 88/4/5 84/4/5 86/4/5
f 88/1/5 86/1/5 87/1/5
f 89/4/5 87/4/5 83/4/5
f 89/4/5 88/4/5 87/4/5
f 90/4/5 84/4/5 88/4/5
f 90/4/5 88/4/5 89/4/5
f 91/4/6 92/4/6 93/4/6
f 93/4/6 92/4/6 94/4/6
f 91/4/6 93/4/6 95/4/6
f 94/4/6 92/4/6 96/4/6
f 91/4/6 95/4/6 97/4/6
f 95/4/6 96/4/6 97/4/6
f 96/4/6 92/4/6 98/4/6
f 97/4/6 96/4/6 98/4/6
f 99/1/6 100/1/6 101/1/6
f 101/1/6 100/1/6 102/1/6
f 99/1/6 101/1/6 103/1/6
f 102/1/6 100/1/6 104/1/6
f 99/1/6 103/1/6 105/1/6
f 103/1/6 104/1/6 105/1/6
f 104/1/6 100/1/6 106/1/6
f 105/1/6 104/1/6 106/1/6
f 107/1/6 108/1/6 109/1/6
f 109/1/6 108/1/6 110/1/6
f 107/1/6 109/1/6 111/1/6
f 107/1/6 111/1/6 112/1/6
f 110/1/6 108/1/6 114/1/6
f 112/1/6 113/1/6 115/1/6
f 113/1/6 114/1/6 115/1/6
f 107/1/6 112/1/6 115/1/6
f 114/1/6 108/1/6 116/1/6
f 115/1/6 114/1/6 116/1/6
f 117/3/6 118/3/6 119/3/6
f 119/3/6 118/3/6 120/3/6
