# MagicaVoxel @ Ephtracy

# group
o 

# material
mtllib L-road.mtl
usemtl palette

# normals
vn -1 0 0
vn 1 0 0
vn 0 0 1
vn 0 0 -1
vn 0 -1 0
vn 0 1 0

# texcoords
vt 0.205078 0.5
vt 0.884766 0.5

# verts
v -0.4 0 0.4
v -0.4 0 -0.4
v -0.4 0.2 0.4
v -0.4 0.2 0.2
v -0.4 0.2 -0.2
v -0.4 0.2 -0.4
v -0.4 0.3 0.4
v -0.4 0.3 0.2
v -0.4 0.3 -0.2
v -0.4 0.3 -0.4
v 0.2 0.2 0.2
v 0.2 0.2 -0.4
v 0.2 0.3 0.2
v 0.2 0.3 -0.4
v -0.2 0.2 -0.2
v -0.2 0.2 -0.4
v -0.2 0.3 -0.2
v -0.2 0.3 -0.4
v 0.4 0 0.4
v 0.4 0 -0.4
v 0.4 0.2 0.4
v 0.4 0.2 -0.4
v 0.4 0.3 0.4
v 0.4 0.3 -0.4
v -0.4 0 0.4
v -0.4 0.2 0.4
v -0.4 0.3 0.4
v 0.4 0 0.4
v 0.4 0.2 0.4
v 0.4 0.3 0.4
v -0.4 0.2 -0.2
v -0.4 0.3 -0.2
v -0.2 0.2 -0.2
v -0.2 0.3 -0.2
v -0.4 0.2 0.2
v -0.4 0.3 0.2
v 0.2 0.2 0.2
v 0.2 0.3 0.2
v -0.4 0 -0.4
v -0.4 0.2 -0.4
v -0.4 0.3 -0.4
v -0.2 0.2 -0.4
v -0.2 0.3 -0.4
v 0.2 0.2 -0.4
v 0.2 0.3 -0.4
v 0.4 0 -0.4
v 0.4 0.2 -0.4
v 0.4 0.3 -0.4
v -0.4 0 0.4
v 0.4 0 0.4
v -0.4 0 -0.4
v 0.4 0 -0.4
v -0.4 0.2 0.2
v 0.2 0.2 0.2
v -0.4 0.2 -0.2
v -0.2 0.2 -0.2
v -0.2 0.2 -0.4
v 0.2 0.2 -0.4
v -0.4 0.3 0.4
v 0.4 0.3 0.4
v -0.4 0.3 0.2
v 0.2 0.3 0.2
v -0.4 0.3 -0.2
v -0.2 0.3 -0.2
v -0.4 0.3 -0.4
v -0.2 0.3 -0.4
v 0.2 0.3 -0.4
v 0.4 0.3 -0.4

# faces
f 3/1/1 2/1/1 1/1/1
f 4/1/1 2/1/1 3/1/1
f 5/1/1 2/1/1 4/1/1
f 6/1/1 2/1/1 5/1/1
f 7/2/1 4/2/1 3/2/1
f 8/2/1 4/2/1 7/2/1
f 9/2/1 6/2/1 5/2/1
f 10/2/1 6/2/1 9/2/1
f 13/2/1 12/2/1 11/2/1
f 14/2/1 12/2/1 13/2/1
f 15/2/2 16/2/2 17/2/2
f 17/2/2 16/2/2 18/2/2
f 19/1/2 20/1/2 21/1/2
f 21/1/2 20/1/2 22/1/2
f 21/2/2 22/2/2 23/2/2
f 23/2/2 22/2/2 24/2/2
f 28/1/3 26/1/3 25/1/3
f 29/2/3 27/2/3 26/2/3
f 29/1/3 26/1/3 28/1/3
f 30/2/3 27/2/3 29/2/3
f 33/2/3 32/2/3 31/2/3
f 34/2/3 32/2/3 33/2/3
f 35/2/4 36/2/4 37/2/4
f 37/2/4 36/2/4 38/2/4
f 39/1/4 40/1/4 42/1/4
f 40/2/4 41/2/4 42/2/4
f 42/2/4 41/2/4 43/2/4
f 39/1/4 42/1/4 44/1/4
f 39/1/4 44/1/4 46/1/4
f 44/2/4 45/2/4 47/2/4
f 46/1/4 44/1/4 47/1/4
f 47/2/4 45/2/4 48/2/4
f 51/1/5 50/1/5 49/1/5
f 52/1/5 50/1/5 51/1/5
f 53/1/6 54/1/6 55/1/6
f 55/1/6 54/1/6 56/1/6
f 56/1/6 54/1/6 57/1/6
f 57/1/6 54/1/6 58/1/6
f 59/2/6 60/2/6 61/2/6
f 61/2/6 60/2/6 62/2/6
f 63/2/6 64/2/6 65/2/6
f 65/2/6 64/2/6 66/2/6
f 62/2/6 60/2/6 67/2/6
f 67/2/6 60/2/6 68/2/6
